<?xml version="1.0" encoding="UTF-8" standalone="no"?>
<!-- Created with Inkscape (http://www.inkscape.org/) -->

<svg
   xmlns:dc="http://purl.org/dc/elements/1.1/"
   xmlns:cc="http://creativecommons.org/ns#"
   xmlns:rdf="http://www.w3.org/1999/02/22-rdf-syntax-ns#"
   xmlns:svg="http://www.w3.org/2000/svg"
   xmlns="http://www.w3.org/2000/svg"
   xmlns:sodipodi="http://sodipodi.sourceforge.net/DTD/sodipodi-0.dtd"
   xmlns:inkscape="http://www.inkscape.org/namespaces/inkscape"
   width="227.06636"
   height="754.09283"
   id="svg2"
   version="1.1"
   inkscape:version="0.48.3.1 r9886"
   sodipodi:docname="bg-right.svg">
  <defs
     id="defs4" />
  <sodipodi:namedview
     id="base"
     pagecolor="#ffffff"
     bordercolor="#666666"
     borderopacity="1.0"
     inkscape:pageopacity="0.0"
     inkscape:pageshadow="2"
     inkscape:zoom="0.98994949"
     inkscape:cx="121.41263"
     inkscape:cy="345.34942"
     inkscape:document-units="px"
     inkscape:current-layer="layer1"
     showgrid="false"
     fit-margin-top="0"
     fit-margin-left="0"
     fit-margin-right="0"
     fit-margin-bottom="0"
     inkscape:window-width="1631"
     inkscape:window-height="1026"
     inkscape:window-x="49"
     inkscape:window-y="24"
     inkscape:window-maximized="1" />
  <metadata
     id="metadata7">
    <rdf:RDF>
      <cc:Work
         rdf:about="">
        <dc:format>image/svg+xml</dc:format>
        <dc:type
           rdf:resource="http://purl.org/dc/dcmitype/StillImage" />
        <dc:title></dc:title>
      </cc:Work>
    </rdf:RDF>
  </metadata>
  <g
     inkscape:label="Layer 1"
     inkscape:groupmode="layer"
     id="layer1"
     transform="translate(83.42521,-212.25565)">
    <g
       id="g3247"
       transform="translate(-367.69552,-138.3909)">
      <path
         style="fill:#fefefe"
         d="m 284.33667,727.64655 0,-377 113.5,0 113.5,0 0,377 0,377.00005 -113.5,0 -113.5,0 0,-377.00005 z"
         id="path3251"
         inkscape:connector-curvature="0" />
      <path
         style="fill:#d0d7e8"
         d="m 313.81312,1099.955 c 1.36409,-9.0964 9.63412,-39.9943 14.84593,-55.4663 l 5.27441,-15.6579 -6.71661,-40.84211 C 307.08828,865.59155 300.49846,834.38716 289.67631,810.22496 l -5.33964,-11.92158 0,-14.82842 c 0,-8.15562 0.23623,-14.82841 0.52496,-14.82841 0.28873,0 3.66373,1.58066 7.5,3.51257 6.12806,3.08604 6.97504,3.2914 6.97504,1.69117 0,-2.37146 -6.0577,-12.42256 -11.10968,-18.43346 -3.96374,-4.71612 -3.97434,-4.75182 -3.68275,-12.40826 l 0.29243,-7.67854 4.48632,6.40826 c 8.65462,12.36225 24.46963,31.4946 33.44844,40.46456 8.91751,8.90872 18.97141,17.4437 20.54805,17.4437 2.85572,0 0.43707,-4.49237 -9.83289,-18.26354 -20.21594,-27.1079 -31.73862,-47.558 -43.13204,-76.54941 l -6.01788,-15.31295 0.0761,-17.18705 c 0.0663,-14.98474 0.23575,-16.73857 1.32218,-13.68705 0.81853,2.29903 2.42231,4.1061 4.67393,5.26636 8.63145,4.4478 44.47756,20.71641 45.14458,20.48869 0.41088,-0.14028 -0.62462,-3.20514 -2.30109,-6.81081 -2.18563,-4.70073 -3.80755,-6.85053 -5.73191,-7.59749 -1.47607,-0.57295 -11.79627,-5.24152 -22.93377,-10.37461 l -20.25,-9.3329 0,-4.33646 0,-4.33647 4.75,2.4005 c 4.67065,2.36041 34.98312,15.63319 35.70318,15.63319 0.20264,0 -0.75028,-2.8125 -2.1176,-6.25 l -2.48603,-6.25 -17.53319,-7.45074 c -9.64326,-4.0979 -17.73779,-7.98392 -17.98786,-8.63559 -0.25007,-0.65168 -0.31379,-2.9844 -0.14159,-5.18383 l 0.31309,-3.99898 14.85226,6.86008 c 14.74759,6.81174 14.84753,6.84088 14.18051,4.13457 -1.60311,-6.50437 -3.72704,-8.3885 -16.78572,-14.89056 l -12.74705,-6.3469 0,-3.939 0,-3.93899 5.56568,2.46141 c 3.06113,1.35377 7.83087,3.60926 10.59944,5.0122 2.76856,1.40294 5.20143,2.38312 5.40637,2.17818 0.20494,-0.20494 -0.89757,-3.0477 -2.45002,-6.31724 -2.66116,-5.60451 -3.28887,-6.19176 -10.97206,-10.26459 l -8.14941,-4.31997 0,-4.44442 0,-4.44442 6,3.02879 c 3.3,1.66583 6,2.89254 6,2.72601 0,-0.16653 -0.84035,-2.76051 -1.86744,-5.7644 -1.60414,-4.69155 -2.45011,-5.73995 -6,-7.43573 l -4.13256,-1.97412 0,-26.72546 0,-26.72547 13.17363,14.19959 c 20.98499,22.61928 28.15406,29.69958 30.07196,29.69958 2.00369,0 2.06329,0.60644 -1.32675,-13.5 -5.80762,-24.16634 -19.84821,-53.51174 -38.08878,-79.60708 -3.84049,-5.49429 -3.91341,-5.76301 -3.6247,-13.35891 l 0.29464,-7.75183 8.83356,12.09484 c 12.38644,16.95942 25.29581,37.91812 34.72255,56.37298 4.4248,8.6625 8.22615,15.75 8.44744,15.75 0.22129,0 1.51758,-0.50814 2.88065,-1.12919 5.71163,-2.60239 6.84544,-23.13526 2.22925,-40.37081 -5.41343,-20.21226 -22.09602,-49.57912 -46.47601,-81.81314 l -11.20382,-14.81314 0.28319,-10.58866 0.28319,-10.58866 18.5,24.20494 c 26.24192,34.33428 35.77453,48.53123 45.72519,68.09866 4.06435,7.99232 10.27481,25.22595 10.27481,28.51196 0,2.16645 0.37548,1.98317 7.19487,-3.51196 3.41272,-2.75 6.52207,-5 6.90968,-5 0.3876,0 4.75077,12.2625 9.69593,27.25 14.45548,43.81081 27.79591,75.69015 52.45632,125.35376 7.89162,15.89293 15.9912,33.48392 17.99907,39.09108 6.94636,19.39838 9.34518,40.10304 6.65507,57.44121 -0.59898,3.86054 -0.82966,7.27856 -0.51262,7.5956 0.31704,0.31705 4.42678,-1.05345 9.13275,-3.04554 5.95194,-2.51952 8.67881,-3.25127 8.95876,-2.40404 0.22136,0.66986 1.13372,7.29293 2.02749,14.71793 2.239,18.60055 6.91948,50.15042 10.4588,70.5 11.57113,66.52907 13.81956,92.75289 10.50029,122.46669 -1.81811,16.27549 -3.91803,25.42273 -9.91578,43.19303 -2.50835,7.43179 -4.56063,14.03613 -4.56063,14.67633 0,1.7549 1.73,1.4673 13.34293,-2.2181 9.86979,-3.13214 10.65707,-3.24387 10.65707,-1.5125 0,1.0283 -1.55077,13.4627 -3.44615,27.6321 -1.89539,14.1693 -4.61969,36.1125 -6.054,48.7625 -3.47715,30.6668 -2.38098,27.5 -9.5189,27.5 -5.11071,0 -5.98095,-0.2641 -5.98095,-1.8147 0,-7.6084 6.81922,-70.0314 8.6508,-79.1893 0.81443,-4.0722 -1.06096,-3.9514 -10.26944,0.6613 -15.91108,7.9701 -38.21428,28.17 -43.87263,39.7353 -3.26313,6.6696 -3.41104,5.5741 3.25484,24.1074 2.176,6.0499 4.25798,12.2574 4.6266,13.7944 l 0.67023,2.7944 -7.07551,-0.2944 -7.07551,-0.2944 -2.81117,-8 c -5.34262,-15.2041 -20.56023,-48.4315 -22.82059,-49.8285 -0.43117,-0.2665 -0.61819,3.1657 -0.41559,7.627 0.2026,4.4613 0.0417,17.6942 -0.35753,29.4065 l -0.72589,21.295 -4.98585,0 c -4.89547,0 -5.16565,-0.166 -14.90401,-9.152 -5.45499,-5.0336 -10.08241,-8.9711 -10.28316,-8.75 -0.20074,0.2211 -1.57941,2.8191 -3.0637,5.7734 l -2.69871,5.3715 3.27458,3.3785 3.27457,3.3786 -10.31279,0 c -9.34764,0 -10.26549,-0.1638 -9.80725,-1.75 3.45832,-11.9713 3.54107,-10.5088 -1.12718,-19.9215 -6.34901,-12.8017 -19.15534,-32.077 -20.11714,-30.279 -1.26915,2.3725 -12.02797,48.4926 -12.02797,51.5605 0,0.2145 -2.52609,0.39 -5.61354,0.39 l -5.61355,0 0.70354,-4.6916 z m 85.52355,-11.7007 0,-8.3923 -6.07241,-5.622 c -5.66656,-5.2462 -7.92759,-6.1779 -7.92759,-3.2666 0,0.6649 -1.19969,2.9744 -2.66598,5.1322 l -2.66599,3.9234 8.91599,8.2785 c 4.90379,4.5532 9.25348,8.2921 9.66598,8.3088 0.4125,0.017 0.75,-3.7463 0.75,-8.362 z m 0,-27.7948 0,-8.1871 -3.08606,2.9371 c -5.32026,5.0634 -5.52682,6.2095 -1.81023,10.0441 1.80875,1.8661 3.65035,3.393 4.09246,3.393 0.44211,0 0.80383,-3.6842 0.80383,-8.1871 z m -31.96278,-6.5743 c -2.2737,-21.4745 -6.99828,-44.6157 -17.50468,-85.73865 -9.93748,-38.8962 -13.86331,-60.28809 -15.50875,-84.50748 -1.04821,-15.42862 -0.0241,-36.46816 2.3988,-49.28184 l 1.30549,-6.90422 -5.71751,-7.65323 c -3.14464,-4.20928 -8.82934,-10.63245 -12.63267,-14.27373 -6.44833,-6.17356 -20.01228,-15.8795 -22.19144,-15.8795 -0.52984,0 1.00112,5.7375 3.40213,12.75 9.47715,27.67944 17.17478,63.68118 26.3969,123.45813 6.81533,44.17631 11.75271,73.4141 15.47172,91.61922 l 2.51827,12.3273 11.19401,18.6274 c 6.15671,10.2451 11.37643,18.0802 11.59937,17.4114 0.22295,-0.6689 -0.1063,-6.0485 -0.73164,-11.9548 z m 13.4,0.8828 c 1.37109,-2.6514 1.33366,-3.0188 -0.47432,-4.655 -1.92382,-1.7411 -1.9629,-1.6837 -1.9629,2.8786 0,2.5602 0.21344,4.655 0.47432,4.655 0.26088,0 1.14418,-1.2954 1.9629,-2.8786 z m 53.05854,-20.6337 c 7.6676,-27.8852 11.41713,-50.96731 12.19513,-75.07328 1.45154,-44.97533 -8.18345,-82.70586 -34.57987,-135.41447 -9.35182,-18.67381 -19.07044,-36.43473 -19.58955,-35.80019 -0.13507,0.1651 0.36597,5.25019 1.11343,11.30019 7.35455,59.52854 12.62011,125.07904 14.49519,180.44943 l 1.16823,34.49732 10.10084,17.168 c 5.55546,9.4424 10.42135,16.8739 10.81309,16.5144 0.39174,-0.3595 2.31932,-6.4981 4.28351,-13.6414 z m -43.52156,5.4294 c 0.73192,-1.263 -0.60628,-2.6421 -6.62133,-6.8238 -4.14625,-2.8825 -7.76115,-5.0184 -8.03311,-4.7464 -0.27197,0.2719 0.0127,2.9377 0.63266,5.9239 0.96593,4.6528 1.7293,5.8704 5.33736,8.5128 l 4.21022,3.0835 1.77845,-2.1836 c 0.97815,-1.2009 2.19124,-2.8958 2.69575,-3.7664 z m 69.14169,-14.6871 c 14.33977,-20.9673 23.1756,-49.10557 25.97844,-82.73005 1.44263,-17.30659 0.61018,-59.40326 -1.5622,-79 -2.70915,-24.43887 -7.21258,-50.05714 -12.57815,-71.5522 -3.31426,-13.27731 -8.63486,-30.02514 -9.96043,-31.35282 -1.65983,-1.66246 -15.25704,9.81682 -30.01138,25.33676 -7.96519,8.37851 -14.64532,15.68588 -14.84472,16.23862 -0.19941,0.55273 3.24853,8.05302 7.66208,16.6673 18.38317,35.87994 27.90822,64.19171 32.35232,96.16234 1.90114,13.67675 1.63678,51.05018 -0.48453,68.5 -1.65116,13.58239 -6.69402,43.88495 -8.65367,52.00005 -0.53127,2.2 -0.95749,4.45 -0.94716,5 0.0294,1.5664 7.56712,-7.254 13.0494,-15.27 z m -64.56126,3.4083 c 0.326,-1.2989 0.44707,-3.7466 0.26905,-5.4393 -0.28119,-2.6737 -1.89904,-4.1851 -12.32368,-11.5128 -6.6,-4.6393 -12.16619,-8.2878 -12.36932,-8.108 -0.20313,0.1799 0.41073,3.5101 1.36412,7.4005 l 1.73344,7.0735 9.13588,6.4376 c 5.02473,3.5407 9.68981,6.454 10.36683,6.4739 0.67702,0.02 1.49767,-1.0265 1.82368,-2.3254 z m 1.44537,-21.0497 0,-6.4113 -16.06298,-11.69234 c -8.83464,-6.43081 -16.21775,-11.53322 -16.4069,-11.33869 -0.18916,0.19452 0.72353,3.73167 2.02818,7.86033 l 2.37209,7.50665 12.47849,8.82305 c 6.86316,4.8526 13.00892,9.4622 13.65724,10.2433 0.64833,0.7812 1.34867,1.4203 1.55632,1.4203 0.20766,0 0.37756,-2.885 0.37756,-6.4113 z m 1,-19.55041 0,-5.96177 -19.75,-14.93212 c -10.8625,-8.21266 -19.86826,-14.8241 -20.01281,-14.69209 -0.14454,0.13201 0.5333,3.73198 1.50631,7.99992 l 1.76912,7.75989 17.49369,12.809 c 9.62153,7.04495 17.83119,12.84723 18.24369,12.89397 0.4125,0.0467 0.75,-2.59783 0.75,-5.8768 z m -2.19587,-29.40562 c -1.26727,-1.0304 -10.85413,-7.96707 -21.30413,-15.41483 -10.45,-7.44776 -19.58813,-13.99494 -20.30696,-14.5493 -1.05738,-0.81545 -1.17047,0.027 -0.59221,4.4118 1.29558,9.82415 0.71181,9.19318 22.92297,24.7767 l 20.9762,14.71707 0.30413,-6.03399 c 0.26671,-5.2916 0.0206,-6.26449 -2,-7.90745 z m 2.19587,-10.55083 c 0,-2.70502 -0.27472,-5.63413 -0.61049,-6.50914 -0.33578,-0.87501 -5.39828,-5.28966 -11.25,-9.81033 -31.40965,-24.26512 -37.36355,-28.76232 -38.07883,-28.76232 -0.83375,0 -0.54591,2.72245 1.05729,10 0.96902,4.39879 1.51303,4.89751 24.18668,22.17335 12.75744,9.72034 23.53285,17.70784 23.94535,17.75 0.4125,0.0422 0.75,-2.13655 0.75,-4.84156 z m -3.18622,-32.27615 c -13.40825,-9.81874 -49.12925,-34.8235 -49.38393,-34.56882 -0.18153,0.18152 -0.0631,2.91643 0.26315,6.07757 l 0.5932,5.74752 20.6069,15.84533 c 11.33379,8.71494 22.6319,17.4668 25.1069,19.44858 l 4.5,3.60324 0.31378,-7.22953 c 0.28597,-6.58884 0.10872,-7.37969 -2,-8.92389 z m 1.18622,-12.18317 0,-5.37752 -25.04073,-18.65632 c -13.77241,-10.26097 -25.47241,-18.38953 -26,-18.06345 -1.2022,0.74299 -1.24917,6.58333 -0.0777,9.65972 0.5087,1.33589 8.43929,7.78455 18.75,15.24632 9.82763,7.11217 20.79342,15.08656 24.36842,17.72087 3.575,2.63431 6.8375,4.80276 7.25,4.81878 0.4125,0.016 0.75,-2.39076 0.75,-5.3484 z m -2.09968,-19.87247 c -0.19006,-8.10354 -0.31281,-8.23339 -24.42305,-25.83671 -24.79061,-18.10007 -24.31994,-17.91813 -24.35158,-9.41329 l -0.0149,4 23.6946,17.66537 c 13.03202,9.71595 24.03209,17.70345 24.44459,17.75 0.4125,0.0465 0.70514,-1.82787 0.65032,-4.16537 z m -1.97397,-24.2662 c -0.54057,-3.81717 -1.30765,-7.21368 -1.70461,-7.5478 -0.39696,-0.33411 -5.89674,-4.20374 -12.22174,-8.59916 -29.43788,-20.45724 -28.38458,-19.99942 -29.9584,-13.0213 -0.67144,2.9771 -0.45402,3.87342 1.32774,5.47371 3.28856,2.95362 42.88126,31.29348 43.2308,30.94395 0.16999,-0.17 -0.13321,-3.43223 -0.67379,-7.2494 z m -2.39371,-21.99604 c -0.67308,-3.58173 -1.40578,-6.68053 -1.62821,-6.88622 -0.67361,-0.62289 -29.32052,-21.16242 -30.52628,-21.88701 -0.69323,-0.41659 -1.78678,1.06694 -2.86221,3.88291 -1.67486,4.38555 -1.67027,4.60871 0.12185,5.92922 14.8259,10.92435 35.00325,25.3753 35.49042,25.41812 0.34552,0.0304 0.0775,-2.87529 -0.59557,-6.45702 z m -2.90764,-19.61276 c -0.34375,-1.71875 -0.625,-4.32616 -0.625,-5.79425 0,-2.26647 -1.57832,-3.74816 -10.45991,-9.81952 l -10.45991,-7.15027 -3.03049,3.82631 -3.03049,3.8263 13.2404,9.11691 c 7.28222,5.0143 13.63415,9.11749 14.1154,9.11821 0.48125,7.2e-4 0.59375,-1.40494 0.25,-3.12369 z m -3.56891,-24.5294 c -0.79812,-4.31745 -1.76299,-6.34902 -3.81233,-8.02705 -1.50907,-1.23564 -3.04126,-2.26281 -3.40487,-2.28259 -1.00772,-0.0548 -5.96227,6.10626 -5.63026,7.00133 0.56432,1.52136 13.29534,10.86221 13.6037,9.98115 0.17178,-0.49083 -0.16853,-3.49361 -0.75624,-6.67284 z m -25.05609,-10.42479 c 0,-0.81413 -13.89347,-6.36523 -14.46675,-5.78014 -0.19364,0.19763 1.49934,3.46223 3.76218,7.25466 l 4.11425,6.89533 3.29516,-3.81194 c 1.81234,-2.09657 3.29516,-4.14762 3.29516,-4.55791 z m 50.90447,-1.90716 c 1.16463,-0.0113 1.29947,-2.20888 0.78957,-12.86882 -2.94355,-61.5382 -29.19885,-119.18435 -81.08469,-178.02953 -10.28051,-11.65941 -28.35218,-29.70581 -29.0493,-29.00868 -0.98864,0.98864 3.42334,16.82934 8.49542,30.50182 10.0263,27.02724 39.02095,89.52621 66.75448,143.89156 10.43179,20.44919 12.00332,23.00227 14.17006,23.02042 2.09557,0.0176 3.28347,1.66691 8.4785,11.77203 5.13251,9.9835 6.3424,11.67511 8.04149,11.24323 1.1,-0.2796 2.63201,-0.51452 3.40447,-0.52203 z m -40.41446,-7.00322 c 1.5753,-1.64426 2.67199,-3.13004 2.43709,-3.30172 -1.95093,-1.42587 -42.9271,-19.73092 -42.9271,-19.17657 0,0.23838 1.55288,3.25367 3.45085,6.70064 l 3.45085,6.26722 14.29915,6.15128 c 7.86453,3.3832 14.77746,6.1957 15.36206,6.25 0.5846,0.0543 2.35179,-1.24659 3.9271,-2.89085 z m 64.59877,-9.93921 c 10.73462,-10.73462 14.51526,-22.14113 13.61288,-41.07122 -0.96133,-20.16675 -6.40836,-36.06971 -26.71631,-78 -20.8332,-43.01478 -35.16494,-76.762 -48.96851,-115.3071 -2.91645,-8.14391 -5.6709,-14.43884 -6.121,-13.98874 -2.76639,2.76639 -15.60613,43.09653 -19.41426,60.981 -1.98552,9.32477 -2.85352,7.04678 7.59609,19.93534 26.51384,32.70221 45.2822,68.53339 57.29297,109.3795 4.90818,16.69173 9.5562,36.08575 12.10295,50.5 2.26743,12.83336 2.44646,13.5 3.62546,13.5 0.58352,0 3.7289,-2.66795 6.98973,-5.92878 z m -61.15356,-10.20494 -4.16555,-8.36628 -8.63483,-3.38235 c -4.74916,-1.86029 -16.92113,-7.14779 -27.04881,-11.75 -10.12768,-4.60221 -18.79584,-8.36765 -19.26257,-8.36765 -0.46673,0 0.75964,3.19355 2.72528,7.09678 l 3.57388,7.09678 13.18869,6.31973 c 20.20271,9.68069 43.15403,20.20993 43.48907,19.95122 0.16521,-0.12757 -1.57411,-3.99677 -3.86516,-8.59823 z m -13.66306,-25.84138 -2.72372,-6.31254 -11.52422,-5.42911 c -18.96547,-8.93471 -43.15011,-19.49069 -43.60731,-19.03349 -0.23513,0.23513 1.26238,3.51803 3.32779,7.29535 l 3.7553,6.86784 20,8.56572 c 11,4.71115 22.925,9.95348 26.5,11.64962 3.575,1.69614 6.61158,2.99958 6.74794,2.89652 0.13637,-0.10305 -0.97773,-3.02801 -2.47578,-6.49991 z M 347.17,707.86858 c -0.18333,-0.42788 -1.1896,-3.07192 -2.23615,-5.87563 l -1.90282,-5.09765 -13.59718,-5.76815 c -7.47845,-3.17248 -19.33468,-8.63167 -26.34718,-12.13153 -7.0125,-3.49986 -12.75,-6.04041 -12.75,-5.64567 0,0.39473 1.0125,3.36499 2.25,6.60056 l 2.25,5.88286 10.5,5.06534 c 10.97944,5.29663 39.8937,17.69954 41.33333,17.73013 0.45834,0.01 0.68334,-0.33238 0.5,-0.76026 z m -62.54242,332.77802 c 0,-45.43949 0.25664,-59.77036 0.94017,-52.50005 1.20739,12.84215 1.19517,91.88875 -0.0162,105.00005 -0.66206,7.1656 -0.92394,-7.7147 -0.92394,-52.5 z"
         id="path3249"
         inkscape:connector-curvature="0" />
    </g>
  </g>
</svg>
