<?xml version="1.0" encoding="UTF-8" standalone="no"?>
<!-- Created with Inkscape (http://www.inkscape.org/) -->

<svg
   xmlns:dc="http://purl.org/dc/elements/1.1/"
   xmlns:cc="http://creativecommons.org/ns#"
   xmlns:rdf="http://www.w3.org/1999/02/22-rdf-syntax-ns#"
   xmlns:svg="http://www.w3.org/2000/svg"
   xmlns="http://www.w3.org/2000/svg"
   xmlns:sodipodi="http://sodipodi.sourceforge.net/DTD/sodipodi-0.dtd"
   xmlns:inkscape="http://www.inkscape.org/namespaces/inkscape"
   width="265"
   height="540"
   id="svg2"
   version="1.1"
   inkscape:version="0.48.3.1 r9886"
   sodipodi:docname="bg-right.svg">
  <defs
     id="defs4" />
  <sodipodi:namedview
     id="base"
     pagecolor="#ffffff"
     bordercolor="#666666"
     borderopacity="1.0"
     inkscape:pageopacity="0.0"
     inkscape:pageshadow="2"
     inkscape:zoom="1.4"
     inkscape:cx="328.26436"
     inkscape:cy="417.59208"
     inkscape:document-units="px"
     inkscape:current-layer="layer1"
     showgrid="false"
     fit-margin-top="0"
     fit-margin-left="0"
     fit-margin-right="0"
     fit-margin-bottom="0"
     inkscape:window-width="1631"
     inkscape:window-height="1026"
     inkscape:window-x="49"
     inkscape:window-y="24"
     inkscape:window-maximized="1" />
  <metadata
     id="metadata7">
    <rdf:RDF>
      <cc:Work
         rdf:about="">
        <dc:format>image/svg+xml</dc:format>
        <dc:type
           rdf:resource="http://purl.org/dc/dcmitype/StillImage" />
        <dc:title></dc:title>
      </cc:Work>
    </rdf:RDF>
  </metadata>
  <g
     inkscape:label="Layer 1"
     inkscape:groupmode="layer"
     id="layer1"
     transform="translate(231.0775,-454.92202)">
    <g
       id="g3337"
       transform="translate(-293.95439,26.263966)">
      <path
         style="fill:#fdfefe"
         d="m 62.876892,698.65805 0,-270 132.499998,0 132.5,0 0,270 0,270 -132.5,0 -132.499998,0 0,-270 z"
         id="path3341"
         inkscape:connector-curvature="0" />
      <path
         style="fill:#d0d7e8"
         d="M 314.87689,956.28445 C 260.72651,907.7512 215.31313,845.51219 193.52635,789.97362 c -4.42452,-11.27894 -10.89737,-32.40099 -10.15636,-33.142 0.29899,-0.29899 2.22285,1.06224 4.27526,3.02494 2.0524,1.96271 5.64414,4.75162 7.98164,6.19757 4.09886,2.53551 4.25,2.55602 4.25,0.57663 0,-5.01137 -6.42883,-14.19242 -28.89996,-41.27221 l -15.60004,-18.7995 -5.18603,0.61347 c -4.48746,0.53082 -5.48337,0.31613 -7.39333,-1.59383 -3.80742,-3.80743 -34.37694,-69.08891 -45.580213,-97.33699 -9.078756,-22.89128 -8.42133,-27.87352 5.334133,-40.42418 l 7.49531,-6.83882 -8.45888,-7.91033 c -10.470577,-9.79155 -14.853571,-15.89531 -19.25854,-26.81945 -3.073196,-7.6214 -14.138747,-49.28385 -13.293753,-50.05176 0.187718,-0.1706 6.14978,0.54234 13.249027,1.5843 7.099247,1.04196 13.068316,1.73389 13.264597,1.53761 0.196281,-0.19629 -0.729991,-2.33781 -2.058382,-4.75895 -3.327736,-6.06516 -11.876669,-25.68396 -15.535466,-35.65207 l -3.028165,-8.25 7.742003,0 7.742002,0 2.906907,8.25 c 7.05365,20.01872 19.05003,38.8638 29.17394,45.82923 4.40814,3.03288 14.22822,7.41073 14.9667,6.67225 0.18392,-0.18393 -3.61667,-8.19075 -8.44575,-17.79294 -7.35925,-14.63322 -17.13611,-38.60922 -17.13611,-42.02326 0,-0.5144 2.68266,-0.93528 5.96146,-0.93528 l 5.96145,0 1.0754,4.25 c 4.08037,16.1258 15.23869,42.4003 23.4739,55.27401 4.7282,7.39137 14.56677,19.77035 15.20546,19.13165 0.2653,-0.26529 1.34928,-4.45885 2.40885,-9.31901 2.54461,-11.67193 5.3052,-19.97271 10.14596,-30.50778 l 3.9843,-8.67113 -2.57087,-7.82887 c -1.41398,-4.30588 -3.45909,-11.09137 -4.54468,-15.07887 l -1.97381,-7.25 5.43629,0 c 4.51044,0 5.43643,0.29804 5.4371,1.75 8.8e-4,1.89066 3.16542,10.74956 4.21475,11.79889 0.35246,0.35246 3.65265,-2.55185 7.33376,-6.45403 6.54834,-6.94158 6.80019,-7.09486 11.6573,-7.09486 l 4.96436,0 -8.28661,9.06668 c -6.57368,7.19251 -7.98665,9.25645 -6.83549,9.98469 0.79812,0.5049 1.90916,0.9249 2.46899,0.93332 0.55982,0.008 2.67345,1.14031 4.69694,2.51531 2.0235,1.375 3.88913,2.5 4.14585,2.5 0.25672,0 3.34716,-3.4875 6.86764,-7.75 6.18838,-7.49271 6.38709,-7.90769 5.98559,-12.5 l -0.41528,-4.75 5.46477,0 5.46477,0 0.63593,4.63957 c 0.34975,2.55177 0.68476,8.06427 0.74445,12.25 0.10073,7.06271 1.41249,20.98647 1.74445,18.51654 0.0809,-0.60164 3.29702,-5.95939 7.14702,-11.90611 5.74534,-8.87427 7.00245,-11.54599 7.01365,-14.90611 0.026,-7.78688 0.61201,-8.59389 6.24066,-8.59389 l 5.02105,0 -0.6261,5.32715 c -0.61422,5.22607 -0.49007,5.56286 6.54312,17.75 8.87194,15.37332 12.65377,24.86806 13.58708,34.11206 0.711,7.04202 0.76682,7.15209 4.21563,8.31123 5.89658,1.98183 7.53868,6.10427 7.32003,18.37674 l -0.18488,10.37718 6.89727,14.946 c 7.49523,16.24175 19.38969,38.6704 27.10436,51.10901 2.67747,4.31697 4.86813,8.65271 4.86813,9.63498 0,3.00786 -3.64878,6.63385 -7.98196,7.9321 -4.88312,1.46302 -5.03098,0.47506 2.62327,17.52803 5.1521,11.47843 5.35752,12.26941 5.32828,20.51711 -0.0175,4.94754 -0.37234,7.94352 -0.83827,7.07841 -0.44432,-0.825 -5.23052,-9.9375 -10.636,-20.25 -5.40548,-10.3125 -10.31576,-18.74056 -10.91173,-18.72902 -1.32603,0.0257 -16.0373,4.36712 -19.83359,5.85309 -1.5125,0.59204 -2.74139,1.65007 -2.73086,2.35118 0.0105,0.70111 10.13552,20.83749 22.5,44.74751 l 22.48086,43.47277 0,31.38422 c 0,27.48625 -0.1863,31.31274 -1.5,30.80862 -1.26796,-0.48656 -1.52078,1.00518 -1.6343,9.64301 -0.19478,14.82115 0.15506,19.02373 1.73128,20.79736 0.94718,1.06581 1.38746,3.98992 1.35513,9 l -0.0479,7.42126 -6.70211,-7.14243 c -3.68616,-3.92834 -14.11237,-15.11006 -23.16935,-24.84828 -9.05699,-9.73821 -16.62306,-17.2384 -16.8135,-16.66708 -0.83515,2.50546 3.06581,19.7435 7.19797,31.80728 9.1497,26.71237 25.9742,64.37617 34.9663,78.27655 l 4.61647,7.13632 0,11.21562 0,11.21563 -3.57422,-4.99681 c -6.76604,-9.45901 -14.14018,-22.04644 -24.89605,-42.4968 -8.08529,-15.37271 -12.06352,-21.83063 -15.90585,-25.82013 -7.20011,-7.47591 -23.23415,-20.62987 -33.46609,-27.45483 -8.5512,-5.70386 -35.60861,-19.72504 -38.06446,-19.72504 -0.73006,0 2.14388,6.54442 6.78073,15.44076 24.96206,47.89271 59.54744,94.64135 95.97405,129.72697 l 13.1519,12.66774 0,9.08226 c 0,4.99525 -0.3375,9.0673 -0.75,9.04901 -0.4125,-0.0183 -5.925,-4.67144 -12.25,-10.34034 z M 272.23381,793.05796 c -4.39224,-14.1151 -5.12426,-15.71103 -8.02998,-17.50687 -11.34172,-7.00956 -44.37762,-50.91281 -71.21815,-94.64574 l -6.29247,-10.2527 -2.65816,1.90949 c -1.46199,1.05022 -6.63271,5.98135 -11.4905,10.95808 l -8.83235,9.04859 8.66209,11.29462 c 25.3675,33.07706 49.72947,60.6353 69.55122,78.6763 14.96355,13.61926 34.25499,28.7075 34.76156,27.18777 0.20875,-0.62625 -1.79521,-8.12755 -4.45326,-16.66954 z m 43.64308,-11.87959 0,-12.47967 -4,-2.04065 -4,-2.04065 0,10.72816 0,10.72816 3.70295,3.79217 c 2.03662,2.08569 3.83662,3.79216 4,3.79216 0.16338,0 0.29705,-5.61585 0.29705,-12.47968 z m -16,-12.38509 0,-6.86477 -8.75,-2.516 c -5.09371,-1.46467 -9.14559,-2.14935 -9.69669,-1.63854 -0.87761,0.81343 15.89561,17.71797 17.69669,17.83525 0.4125,0.0269 0.75,-3.04032 0.75,-6.81594 z m -32,-19.74222 c 0,-17.77966 -0.69672,-16.97792 9.0199,-10.3795 3.28905,2.23356 5.9801,3.8742 5.9801,3.64588 0,-2.82054 -49.04226,-100.65939 -50.45607,-100.65939 -3.7631,0 -37.45194,20.99887 -37.51902,23.38629 -0.0836,2.9754 27.34213,45.92431 40.30231,63.11371 10.39899,13.79244 30.17988,36.5 31.79568,36.5 0.4824,0 0.8771,-7.02314 0.8771,-15.60699 z m 53.36971,6.35699 c 0.33164,-1.2375 0.60918,-8.775 0.61676,-16.75 0.0129,-13.6017 -0.15489,-14.8872 -2.70887,-20.75 -1.49746,-3.4375 -3.00818,-6.25 -3.35717,-6.25 -0.60424,0 -1.04442,5.32135 -2.53787,30.68081 l -0.65846,11.1808 3.38795,2.06546 c 4.24226,2.58628 4.51962,2.57694 5.25766,-0.17707 z m -15.88072,-25.25 c 0.38347,-9.35 1.03657,-21.92534 1.45133,-27.94521 l 0.75412,-10.9452 -3.75286,-7.98408 -3.75287,-7.98408 -0.59242,5.42929 c -0.32583,2.9861 -1.30985,16.80734 -2.18671,30.71386 -1.50113,23.8071 -1.49368,25.44325 0.12752,28 1.82978,2.88571 6.66884,8.35689 7.03589,7.95499 0.12033,-0.13176 0.53254,-7.88957 0.916,-17.23957 z m -16.46083,-42.58102 c 1.125,-31.13975 1.1118,-31.64277 -0.94497,-36 -1.14726,-2.43044 -3.19412,-5.76898 -4.54859,-7.41898 l -2.46267,-3 -0.0301,9 c -0.0165,4.95 -0.53891,20.25 -1.16083,34 l -1.13077,25 4.37487,6.98288 c 3.0499,4.86805 4.43351,6.38235 4.56848,5 0.10649,-1.09058 0.70704,-16.19434 1.33455,-33.5639 z m -98.77883,-29.82362 c 29.34099,-21.64695 60.96604,-35.93997 115.25067,-52.08785 7.7,-2.29049 14.29857,-4.4667 14.66349,-4.83602 0.36492,-0.36932 -0.53508,-3.22154 -2,-6.33827 l -2.66349,-5.66679 -28,9.26212 c -36.99317,12.23697 -54.46761,19.01385 -75,29.08623 -25.13456,12.33003 -46.56076,26.97824 -66.82442,45.6851 l -6.82443,6.30012 3.69482,8 c 2.03214,4.4 4.08876,8.49385 4.57026,9.09745 0.57976,0.72678 6.36531,-4.37527 17.12961,-15.10594 8.93979,-8.91186 20.64136,-19.44013 26.00349,-23.39615 z m 81.05848,0.20625 c 0.34582,-17.43411 0.44818,-31.87896 0.22747,-32.09966 -0.2207,-0.2207 -1.9376,0.10575 -3.81533,0.72546 l -3.41405,1.12674 -0.64889,12.72292 c -0.3569,6.99761 -0.65072,18.28494 -0.65295,25.08295 -0.004,11.94145 0.10225,12.55949 3.13527,18.25 1.72662,3.23949 3.45441,5.88998 3.83953,5.88998 0.38511,0 0.98314,-14.26427 1.32895,-31.69839 z m -139.30781,-30.75072 0,-39.44911 -3.52722,-2.69034 c -1.93997,-1.47968 -3.7444,-2.47315 -4.00985,-2.2077 -0.26545,0.26545 -0.77497,15.7976 -1.13228,34.51589 l -0.64964,34.03326 4.4095,7.61129 c 2.42522,4.18621 4.52199,7.61681 4.65949,7.62356 0.1375,0.007 0.25,-17.73984 0.25,-39.43685 z m 21.5,29.28242 c 11.7569,-10.84021 24.94555,-22.05489 30.25,-25.72242 1.7875,-1.2359 3.25,-2.6249 3.25,-3.08669 0,-0.90389 -46.18156,-32.17598 -46.7205,-31.63703 -0.58833,0.58833 1.02978,70.61309 1.63142,70.60065 0.324,-0.007 5.53908,-4.57623 11.58908,-10.15451 z m -3.79607,-17.42942 c -7.73753,-4.19532 -5.63667,-17.84572 3.15179,-20.47881 10.94332,-3.2787 19.56419,5.56087 14.66426,15.03628 -3.41219,6.59845 -11.26166,8.99634 -17.81605,5.44253 z m 11.84153,-5.85844 c 4.58374,-4.58374 1.85729,-10.94656 -4.61177,-10.76263 -5.3867,0.15316 -8.60714,4.31568 -6.87127,8.88135 0.58449,1.53732 1.59705,3.13489 2.25014,3.55017 2.43294,1.54699 6.80779,0.75622 9.2329,-1.66889 z m 93.08309,-1.25023 c -0.34466,-0.34466 -10.25866,4.17881 -11.43978,5.21965 -0.17118,0.15084 2.30382,5.38421 5.5,11.62969 l 5.81123,11.35544 0.27912,-13.88755 c 0.15351,-7.63815 0.0857,-14.08091 -0.15057,-14.31723 z M 118.31851,588.03463 c 0.86434,-3.4438 -0.71158,-2.92705 -4.76868,1.56368 -5.23288,5.79217 -6.67294,9.21345 -6.67294,15.85353 0,6.11078 1.91062,12.80234 6.70342,23.47736 l 2.79658,6.22885 0.67257,-22.37342 c 0.36991,-12.30538 0.94099,-23.44288 1.26905,-24.75 z m 81.59615,32.72097 c 1.90423,-1.59635 3.23723,-3.09029 2.96223,-3.31987 -0.275,-0.22958 -10.4,-7.30922 -22.5,-15.73252 -12.1,-8.4233 -26.45098,-18.64715 -31.89106,-22.71967 l -9.89106,-7.40456 -3.85894,2.55372 c -2.12242,1.40455 -3.85894,2.9242 -3.85894,3.377 0,1.03588 63.41782,45.99831 65.03777,46.11096 0.29578,0.0206 2.09578,-1.26871 4,-2.86506 z m 21.2073,-14.68496 c 5.36092,-21.23579 16.75493,-70.45546 16.75493,-72.37768 0,-1.63985 -0.42838,-2.0845 -1.58179,-1.6419 -0.86998,0.33385 -2.81834,0.60699 -4.3297,0.60699 -2.63368,0 -2.82069,0.34295 -4.49874,8.25 -0.96296,4.5375 -4.84149,21.75 -8.61894,38.25 -3.77746,16.5 -7.16688,31.69056 -7.53204,33.7568 l -0.66392,3.7568 4.36256,-1.84421 c 4.21193,-1.78053 4.42283,-2.0829 6.10764,-8.7568 z m -15.59419,-2.30587 1.16143,-5.23013 -4.15615,-3.02434 c -5.20182,-3.78523 -26.7093,-17.19024 -40.909,-25.49743 l -10.75284,-6.29069 -3.74716,2.54289 c -2.06094,1.39859 -3.52216,2.84313 -3.24716,3.21008 0.275,0.36695 12.2,8.49949 26.5,18.0723 14.3,9.57282 27.35,18.45854 29,19.74604 1.65,1.28751 3.44763,2.19703 3.99473,2.02117 0.5471,-0.17587 1.51737,-2.67332 2.15615,-5.54989 z m 31.04021,2.34913 c 3.51475,-1.43689 3.38835,-1.11526 7.84244,-19.95585 3.01653,-12.75977 12.46647,-56.30813 12.46647,-57.4495 0,-1.46206 -8.96435,1.26028 -9.43263,2.86454 -0.25446,0.87173 -4.35825,18.23496 -9.11955,38.58496 -4.7613,20.35 -8.89122,37.38571 -9.17759,37.85713 -0.56093,0.92339 2.31192,0.18734 7.42086,-1.90128 z m 23.55891,-7.673 c 4.8125,-1.23867 8.75,-2.54775 8.75,-2.90908 0,-0.36132 -1.13896,-0.94281 -2.53102,-1.2922 -3.37751,-0.8477 -6.4615,-6.13679 -6.4615,-11.08157 0,-11.09273 13.0121,-18.56163 20.84904,-11.96727 5.03736,4.23865 5.98421,10.69704 2.71868,18.54391 -0.52962,1.27266 0.94228,1.03576 7.63434,-1.22871 4.55975,-1.54293 9.07796,-2.81492 10.04046,-2.82663 2.571,-0.0313 2.19232,-1.23086 -2.26374,-7.17089 -4.78232,-6.37493 -34.80977,-38.85041 -35.92184,-38.85041 -0.42631,0 -1.57377,3.7125 -2.54991,8.25 -0.97614,4.5375 -4.41623,18.28432 -7.64465,30.5485 -3.22842,12.26417 -5.86986,22.55415 -5.86986,22.86663 0,0.31247 1.0125,0.29852 2.25,-0.031 1.2375,-0.32953 6.1875,-1.6126 11,-2.85126 z m -151.25,-13.40008 c 22.83158,-20.24917 59.62086,-39.47691 101.16158,-52.87163 15.60309,-5.03118 47.15581,-13.32949 61.08842,-16.06615 l 8.75,-1.71868 0,-3.86316 c 0,-2.12473 -0.4101,-3.86315 -0.91134,-3.86315 -1.33884,0 -20.52566,4.50066 -36.58866,8.58261 -47.00999,11.94626 -81.72639,25.1589 -113.66279,43.25868 -20.90412,11.84729 -29.816701,19.80618 -31.477269,28.10902 -0.557385,2.78692 0.834071,6.11554 2.512506,6.01037 0.345153,-0.0216 4.452553,-3.43169 9.127553,-7.57791 z m 169.07692,2.69415 c 1.76217,-1.76217 2.92308,-3.97705 2.92308,-5.57692 0,-3.33146 -4.98647,-8.5 -8.20057,-8.5 -5.96764,0 -9.43954,6.92769 -6.40897,12.78817 2.64532,5.11548 7.34182,5.6334 11.68646,1.28875 z m -69.45139,-0.82692 c 0.365,-1.5125 3.27999,-12.09711 6.47775,-23.52136 3.19776,-11.42424 6.10639,-22.32938 6.46364,-24.23364 l 0.64953,-3.46229 -18.85823,6.37727 c -16.5233,5.58767 -36.89327,13.74753 -41.34986,16.56404 -1.95064,1.23278 -2.61236,0.73425 18.99164,14.30795 10.175,6.3929 20.075,12.74767 22,14.12171 4.45636,3.18088 4.82325,3.17086 5.62553,-0.15368 z M 191.4432,573.07634 c -5.24025,-1.91933 -7.40249,-4.02811 -8.13525,-7.9341 -1.22344,-6.52146 5.69277,-14.48419 12.58057,-14.48419 5.56389,0 8.71128,1.49718 10.98417,5.22507 4.85112,7.95657 -0.56319,18.96898 -9.19614,18.70447 -1.26481,-0.0388 -4.06982,-0.71882 -6.23335,-1.51125 z m 9.02248,-5.741 c 2.34736,-2.01912 2.61044,-2.80177 2.01273,-5.98785 -1.13779,-6.06494 -7.77727,-7.82406 -11.52894,-3.05458 -5.75302,7.31378 2.45669,15.11477 9.51621,9.04243 z m 95.28634,-11.92729 c -11.39711,-22.75201 -16.74278,-31.75 -18.86254,-31.75 -3.30744,0 -12.01259,2.31779 -12.01259,3.19841 0,0.4702 7.3125,9.20295 16.25,19.4061 8.9375,10.20314 17.12536,19.64115 18.19525,20.97333 4.31876,5.37757 3.21231,1.71189 -3.57012,-11.82784 z m -156.86513,-12.255 c 10.4445,-5.22776 18.99,-9.90116 18.99,-10.38535 0,-1.73675 -13.55591,-13.51642 -21.44976,-18.63918 -9.44543,-6.12967 -15.54563,-9.28603 -26.24083,-13.57748 -11.391548,-4.57085 -27.578179,-9.95755 -28.163344,-9.37239 -0.842994,0.843 2.875259,15.44166 6.23486,24.4794 7.390868,19.88235 21.014934,36.73321 29.879074,36.9558 0.968,0.0243 10.3055,-4.23305 20.75,-9.4608 z m 45.08063,-21.08332 c 11.11954,-4.29437 38.98499,-12.41168 42.60734,-12.41168 2.4711,0 2.54951,-0.17777 1.9637,-4.45173 -0.87355,-6.37325 -4.08548,-14.97527 -7.68776,-20.58893 -3.39904,-5.29694 -14.10121,-15.78308 -20.77288,-20.35357 -4.11588,-2.81963 -4.27688,-2.8471 -6.2452,-1.0658 -5.50033,4.97773 -10.88481,19.51446 -16.43702,44.37579 -3.46712,15.52488 -3.90856,18.08424 -3.11916,18.08424 0.2198,0 4.58075,-1.61474 9.69098,-3.58832 z m 75.90937,-21.57626 c 5.775,-1.69157 10.87939,-3.42343 11.34309,-3.84859 2.39042,-2.19172 -4.23819,-21.82968 -10.7315,-31.79322 l -4.10993,-6.3064 -2.25162,2.8064 c -4.94038,6.1576 -10.77552,24.3503 -12.56389,39.17145 l -0.5267,4.36506 4.17027,-0.65956 c 2.29366,-0.36276 8.89528,-2.04357 14.67028,-3.73514 z M 221.2792,459.90805 c -0.35937,-3.7125 -0.97507,-7.10567 -1.36824,-7.54039 -0.39316,-0.43471 -1.97236,1.10985 -3.50932,3.43236 l -2.79448,4.22274 3.62018,3.31764 c 1.9911,1.82471 3.86432,3.31765 4.16271,3.31765 0.2984,0 0.24851,-3.0375 -0.11085,-6.75 z m 99.35685,51.21702 c -8.89446,-27.66571 -13.52387,-44.68412 -21.28651,-78.25231 -0.52711,-2.27942 -0.50221,-2.28456 9.68896,-2 l 10.21742,0.28529 4.28972,17 4.28972,17 -0.22923,33.46702 -0.22924,33.46701 -6.74084,-20.96701 z"
         id="path3339"
         inkscape:connector-curvature="0" />
    </g>
  </g>
</svg>
