<?xml version="1.0" encoding="UTF-8" standalone="no"?>
<!-- Created with Inkscape (http://www.inkscape.org/) -->

<svg
   xmlns:dc="http://purl.org/dc/elements/1.1/"
   xmlns:cc="http://creativecommons.org/ns#"
   xmlns:rdf="http://www.w3.org/1999/02/22-rdf-syntax-ns#"
   xmlns:svg="http://www.w3.org/2000/svg"
   xmlns="http://www.w3.org/2000/svg"
   xmlns:sodipodi="http://sodipodi.sourceforge.net/DTD/sodipodi-0.dtd"
   xmlns:inkscape="http://www.inkscape.org/namespaces/inkscape"
   width="1600"
   height="1200"
   id="svg2"
   version="1.1"
   inkscape:version="0.48.3.1 r9886"
   sodipodi:docname="bg-watermark.svg">
  <defs
     id="defs4" />
  <sodipodi:namedview
     id="base"
     pagecolor="#ffffff"
     bordercolor="#666666"
     borderopacity="1.0"
     inkscape:pageopacity="0.0"
     inkscape:pageshadow="2"
     inkscape:zoom="0.25"
     inkscape:cx="-325.87395"
     inkscape:cy="1631.4118"
     inkscape:document-units="px"
     inkscape:current-layer="layer1"
     showgrid="false"
     fit-margin-top="0"
     fit-margin-left="0"
     fit-margin-right="0"
     fit-margin-bottom="0"
     inkscape:window-width="1871"
     inkscape:window-height="1056"
     inkscape:window-x="49"
     inkscape:window-y="24"
     inkscape:window-maximized="1" />
  <metadata
     id="metadata7">
    <rdf:RDF>
      <cc:Work
         rdf:about="">
        <dc:format>image/svg+xml</dc:format>
        <dc:type
           rdf:resource="http://purl.org/dc/dcmitype/StillImage" />
        <dc:title></dc:title>
      </cc:Work>
    </rdf:RDF>
  </metadata>
  <g
     inkscape:label="Layer 1"
     inkscape:groupmode="layer"
     id="layer1"
     transform="translate(83.42521,233.65152)">
    <path
       inkscape:connector-curvature="0"
       id="path3249"
       d="m -53.881735,912.80582 c 1.36409,-9.0964 9.63412,-39.9943 14.84593,-55.4663 l 5.27441,-15.6579 -6.71661,-40.84211 c -20.12857,-122.39714 -26.71839,-153.60153 -37.54054,-177.76373 l -5.33964,-11.92158 0,-14.82842 c 0,-8.15562 0.23623,-14.82841 0.52496,-14.82841 0.28873,0 3.66373,1.58066 7.5,3.51257 6.12806,3.08604 6.97504,3.2914 6.97504,1.69117 0,-2.37146 -6.0577,-12.42256 -11.10968,-18.43346 -3.96374,-4.71612 -3.97434,-4.75182 -3.68275,-12.40826 l 0.29243,-7.67854 4.48632,6.40826 c 8.65462,12.36225 24.46963,31.4946 33.44844,40.46456 8.91751,8.90872 18.97141,17.4437 20.54805,17.4437 2.85572,0 0.43707,-4.49237 -9.83289,-18.26354 -20.21594,-27.1079 -31.73862,-47.558 -43.13204,-76.54941 l -6.01788,-15.31295 0.0761,-17.18705 c 0.0663,-14.98474 0.23575,-16.73857 1.32218,-13.68705 0.81853,2.29903 2.42231,4.1061 4.67393,5.26636 8.63145,4.4478 44.47756,20.71641 45.14458,20.48869 0.41088,-0.14028 -0.62462,-3.20514 -2.30109,-6.81081 -2.18563,-4.70073 -3.80755,-6.85053 -5.73191,-7.59749 -1.47607,-0.57295 -11.79627,-5.24152 -22.93377,-10.37461 l -20.25,-9.3329 0,-4.33646 0,-4.33647 4.75,2.4005 c 4.67065,2.36041 34.98312,15.63319 35.70318,15.63319 0.20264,0 -0.75028,-2.8125 -2.1176,-6.25 l -2.48603,-6.25 -17.53319,-7.45074 c -9.64326,-4.0979 -17.73779,-7.98392 -17.98786,-8.63559 -0.25007,-0.65168 -0.31379,-2.9844 -0.14159,-5.18383 l 0.31309,-3.99898 14.85226,6.86008 c 14.74759,6.81174 14.84753,6.84088 14.18051,4.13457 -1.60311,-6.50437 -3.72704,-8.3885 -16.78572,-14.89056 l -12.74705,-6.3469 0,-3.939 0,-3.93899 5.56568,2.46141 c 3.06113,1.35377 7.83087,3.60926 10.59944,5.0122 2.76856,1.40294 5.20143,2.38312 5.40637,2.17818 0.20494,-0.20494 -0.89757,-3.0477 -2.45002,-6.31724 -2.66116,-5.60451 -3.28887,-6.19176 -10.97206,-10.26459 l -8.14941,-4.31997 0,-4.44442 0,-4.44442 6,3.02879 c 3.3,1.66583 6,2.89254 6,2.72601 0,-0.16653 -0.84035,-2.76051 -1.86744,-5.7644 -1.60414,-4.69155 -2.45011,-5.73995 -6,-7.43573 l -4.13256,-1.97412 0,-26.72546 0,-26.72547 13.17363,14.19959 c 20.98499,22.61928 28.15406,29.69958 30.07196,29.69958 2.00369,0 2.06329,0.60644 -1.32675,-13.5 -5.80762,-24.16634 -19.84821,-53.51174 -38.08878,-79.60708 -3.84049,-5.49429 -3.91341,-5.76301 -3.6247,-13.35891 l 0.29464,-7.75183 8.83356,12.09484 c 12.38644,16.95942 25.29581,37.91812 34.72255,56.37298 4.4248,8.6625 8.22615,15.75 8.44744,15.75 0.22129,0 1.51758,-0.50814 2.88065,-1.12919 5.71163,-2.60239 6.84544,-23.13526 2.22925,-40.37081 -5.41343,-20.21226 -22.09602,-49.57912 -46.47601,-81.81314 l -11.20382,-14.81314 0.28319,-10.58866 0.28319,-10.58866 18.5,24.20494 c 26.24192,34.33428 35.77453,48.53123 45.72519,68.09866 4.06435,7.99232 10.2748083,25.22595 10.2748083,28.51196 0,2.16645 0.37548,1.98317 7.1948704,-3.51196 3.4127196,-2.75 6.5220696,-5 6.9096796,-5 0.3876,0 4.7507717,12.2625 9.6959317,27.25 14.45548,43.81081 27.79591,75.69015 52.45632,125.35376 7.89162,15.89293 15.9912,33.48392 17.99907,39.09108 6.94636,19.39838 9.34518,40.10304 6.65507,57.44121 -0.59898,3.86054 -0.82966,7.27856 -0.51262,7.5956 0.31704,0.31705 4.42678,-1.05345 9.132735,-3.04554 5.95194,-2.51952 8.67881,-3.25127 8.95876,-2.40404 0.22136,0.66986 1.13372,7.29293 2.02749,14.71793 2.239,18.60055 6.91948,50.15042 10.4588,70.5 11.57113,66.52907 13.81956,92.75289 10.50029,122.46669 -1.81811,16.27549 -3.91803,25.42273 -9.91578,43.19303 -2.50835,7.43179 -4.56063,14.03613 -4.56063,14.67633 0,1.7549 1.73,1.4673 13.34293,-2.2181 9.86979,-3.13214 10.65707,-3.24387 10.65707,-1.5125 0,1.0283 -1.55077,13.4627 -3.44615,27.6321 -1.89539,14.1693 -4.61969,36.1125 -6.054,48.7625 -3.47715,30.6668 -2.38098,27.5 -9.5189,27.5 -5.11071,0 -5.98095,-0.2641 -5.98095,-1.8147 0,-7.6084 6.81922,-70.0314 8.6508,-79.1893 0.81443,-4.0722 -1.06096,-3.9514 -10.26944,0.6613 -15.91108,7.9701 -38.214265,28.17 -43.872615,39.7353 -3.26313,6.6696 -3.41104,5.5741 3.25484,24.1074 2.176,6.0499 4.25798,12.2574 4.6266,13.7944 l 0.67023,2.7944 -7.07551,-0.2944 -7.07551,-0.2944 -2.81117,-8 c -5.34262,-15.2041 -20.56023,-48.4315 -22.82059,-49.8285 -0.43117,-0.2665 -0.61819,3.1657 -0.41559,7.627 0.2026,4.4613 0.0417,17.6942 -0.35753,29.4065 l -0.72589,21.295 -4.98585,0 c -4.89547,0 -5.16565,-0.166 -14.90401,-9.152 -5.45499,-5.0336 -10.0824105,-8.9711 -10.2831606,-8.75 -0.2007402,0.2211 -1.5794111,2.8191 -3.0637011,5.7734 l -2.69871,5.3715 3.27458,3.3785 3.2745717,3.3786 -10.31279137,0 c -9.34764033,0 -10.26548963,-0.1638 -9.80725063,-1.75 3.4583203,-11.9713 3.5410703,-10.5088 -1.127179,-19.9215 -6.349009,-12.8017 -19.155339,-32.077 -20.117139,-30.279 -1.26915,2.3725 -12.02797,48.4926 -12.02797,51.5605 0,0.2145 -2.52609,0.39 -5.61354,0.39 l -5.61355,0 0.70354,-4.6916 z m 85.52355,-11.7007 0,-8.3923 -6.07241,-5.622 c -5.66656,-5.2462 -7.92759,-6.1779 -7.92759,-3.2666 0,0.6649 -1.19969,2.9744 -2.66598,5.1322 l -2.66599,3.9234 8.91599,8.2785 c 4.90379,4.5532 9.25348,8.2921 9.66598,8.3088 0.4125,0.017 0.75,-3.7463 0.75,-8.362 z m 0,-27.7948 0,-8.1871 -3.08606,2.9371 c -5.32026,5.0634 -5.52682,6.2095 -1.81023,10.0441 1.80875,1.8661 3.65035,3.393 4.09246,3.393 0.44211,0 0.80383,-3.6842 0.80383,-8.1871 z m -31.96278137,-6.5743 c -2.27370023,-21.4745 -6.99828033,-44.6157 -17.50467863,-85.73865 -9.93748,-38.8962 -13.86331,-60.28809 -15.50875,-84.50748 -1.04821,-15.42862 -0.0241,-36.46816 2.3988,-49.28184 l 1.30549,-6.90422 -5.71751,-7.65323 c -3.14464,-4.20928 -8.82934,-10.63245 -12.63267,-14.27373 -6.44833,-6.17356 -20.01228,-15.8795 -22.19144,-15.8795 -0.52984,0 1.00112,5.7375 3.40213,12.75 9.47715,27.67944 17.17478,63.68118 26.3969,123.45813 6.81533,44.17631 11.75271,73.4141 15.47172,91.61922 l 2.51827,12.3273 11.194009,18.6274 c 6.1567093,10.2451 11.37642951,18.0802 11.59936945,17.4114 0.22294994,-0.6689 -0.10629997,-6.0485 -0.73163982,-11.9548 z m 13.40000137,0.8828 c 1.37109,-2.6514 1.33366,-3.0188 -0.47432,-4.655 -1.92382,-1.7411 -1.9629,-1.6837 -1.9629,2.8786 0,2.5602 0.21344,4.655 0.47432,4.655 0.26088,0 1.14418,-1.2954 1.9629,-2.8786 z m 53.05854,-20.6337 c 7.6676,-27.8852 11.41713,-50.96731 12.19513,-75.07328 1.45154,-44.97533 -8.18345,-82.70586 -34.57987,-135.41447 -9.35182,-18.67381 -19.07044,-36.43473 -19.58955,-35.80019 -0.13507,0.1651 0.36597,5.25019 1.11343,11.30019 7.35455,59.52854 12.62011,125.07904 14.49519,180.44943 l 1.16823,34.49732 10.10084,17.168 c 5.55546,9.4424 10.42135,16.8739 10.81309,16.5144 0.39174,-0.3595 2.31932,-6.4981 4.28351,-13.6414 z m -43.52156,5.4294 c 0.73192,-1.263 -0.60628,-2.6421 -6.62133,-6.8238 -4.14625,-2.8825 -7.7611514,-5.0184 -8.0331117,-4.7464 -0.27197,0.2719 0.0127,2.9377 0.6326605,5.9239 0.9659308,4.6528 1.7293012,5.8704 5.3373612,8.5128 l 4.21022,3.0835 1.77845,-2.1836 c 0.97815,-1.2009 2.19124,-2.8958 2.69575,-3.7664 z m 69.14169,-14.6871 c 14.339755,-20.9673 23.175585,-49.10557 25.978425,-82.73005 1.44263,-17.30659 0.61018,-59.40326 -1.5622,-79 -2.70915,-24.43887 -7.21258,-50.05714 -12.57815,-71.5522 -3.31426,-13.27731 -8.634845,-30.02514 -9.960415,-31.35282 -1.65983,-1.66246 -15.25704,9.81682 -30.01138,25.33676 -7.96519,8.37851 -14.64532,15.68588 -14.84472,16.23862 -0.19941,0.55273 3.24853,8.05302 7.66208,16.6673 18.38317,35.87994 27.90822,64.19171 32.35232,96.16234 1.90114,13.67675 1.63678,51.05018 -0.48453,68.5 -1.65116,13.58239 -6.69402,43.88495 -8.65367,52.00005 -0.53127,2.2 -0.95749,4.45 -0.94716,5 0.0294,1.5664 7.56712,-7.254 13.0494,-15.27 z m -64.56126,3.4083 c 0.326,-1.2989 0.44707,-3.7466 0.26905,-5.4393 -0.28119,-2.6737 -1.89904,-4.1851 -12.32368,-11.5128 -6.6000012,-4.6393 -12.1661917,-8.2878 -12.3693217,-8.108 -0.20313,0.1799 0.41073,3.5101 1.36412,7.4005 l 1.73344,7.0735 9.1358817,6.4376 c 5.02473,3.5407 9.68981,6.454 10.36683,6.4739 0.67702,0.02 1.49767,-1.0265 1.82368,-2.3254 z m 1.44537,-21.0497 0,-6.4113 -16.06298,-11.69234 c -8.8346417,-6.43081 -16.2177517,-11.53322 -16.4069017,-11.33869 -0.18916,0.19452 0.72353,3.73167 2.0281803,7.86033 l 2.37208982,7.50665 12.47849158,8.82305 c 6.86316,4.8526 13.00892,9.4622 13.65724,10.2433 0.64833,0.7812 1.34867,1.4203 1.55632,1.4203 0.20766,0 0.37756,-2.885 0.37756,-6.4113 z m 1,-19.55041 0,-5.96177 -19.7500001,-14.93212 c -10.86250112,-8.21266 -19.8682616,-14.8241 -20.0128119,-14.69209 -0.144539,0.13201 0.5333003,3.73198 1.5063103,7.99992 l 1.76912,7.75989 17.4936917,12.809 c 9.62153,7.04495 17.83119,12.84723 18.24369,12.89397 0.4125,0.0467 0.75,-2.59783 0.75,-5.8768 z m -2.19587,-29.40562 c -1.26727,-1.0304 -10.85413,-7.96707 -21.3041317,-15.41483 -10.45,-7.44776 -19.5881283,-13.99494 -20.3069583,-14.5493 -1.05738,-0.81545 -1.17047,0.027 -0.59221,4.4118 1.29558,9.82415 0.71181,9.19318 22.9229685,24.7767 l 20.9762015,14.71707 0.30413,-6.03399 c 0.26671,-5.2916 0.0206,-6.26449 -2,-7.90745 z m 2.19587,-10.55083 c 0,-2.70502 -0.27472,-5.63413 -0.61049,-6.50914 -0.33578,-0.87501 -5.39828,-5.28966 -11.25,-9.81033 -31.40965,-24.26512 -37.36355,-28.76232 -38.07883,-28.76232 -0.83375,0 -0.54591,2.72245 1.05729,10 0.96902,4.39879 1.51303,4.89751 24.1866783,22.17335 12.7574417,9.72034 23.5328517,17.70784 23.9453517,17.75 0.4125,0.0422 0.75,-2.13655 0.75,-4.84156 z m -3.18622,-32.27615 c -13.40825,-9.81874 -49.12925,-34.8235 -49.38393,-34.56882 -0.18153,0.18152 -0.0631,2.91643 0.26315,6.07757 l 0.5932,5.74752 20.6068987,15.84533 c 11.3337911,8.71494 22.6319013,17.4668 25.1069013,19.44858 l 4.5,3.60324 0.31378,-7.22953 c 0.28597,-6.58884 0.10872,-7.37969 -2,-8.92389 z m 1.18622,-12.18317 0,-5.37752 L 2.6010833,692.086 C -11.171326,681.82503 -22.871325,673.69647 -23.398915,674.02255 c -1.2022,0.74299 -1.24917,6.58333 -0.0777,9.65972 0.5087,1.33589 8.43929,7.78455 18.7499983,15.24632 9.82763,7.11217 20.7934217,15.08656 24.3684217,17.72087 3.575,2.63431 6.8375,4.80276 7.25,4.81878 0.4125,0.016 0.75,-2.39076 0.75,-5.3484 z m -2.09968,-19.87247 c -0.19006,-8.10354 -0.31281,-8.23339 -24.4230517,-25.83671 -24.7906083,-18.10007 -24.3199383,-17.91813 -24.3515783,-9.41329 l -0.0149,4 23.69459845,17.66537 c 13.03202155,9.71595 24.03209155,17.70345 24.44459155,17.75 0.4125,0.0465 0.70514,-1.82787 0.65032,-4.16537 z m -1.97397,-24.2662 c -0.54057,-3.81717 -1.30765,-7.21368 -1.70461,-7.5478 -0.39696,-0.33411 -5.89674,-4.20374 -12.2217403,-8.59916 -29.4378797,-20.45724 -28.3845797,-19.99942 -29.9583997,-13.0213 -0.67144,2.9771 -0.45402,3.87342 1.32774,5.47371 3.28856,2.95362 42.88126,31.29348 43.2308,30.94395 0.16999,-0.17 -0.13321,-3.43223 -0.67379,-7.2494 z m -2.39371,-21.99604 c -0.67308,-3.58173 -1.40578,-6.68053 -1.62821,-6.88622 -0.67361,-0.62289 -29.3205217,-21.16242 -30.526281,-21.88701 -0.693229,-0.41659 -1.786779,1.06694 -2.862209,3.88291 -1.67486,4.38555 -1.67027,4.60871 0.12185,5.92922 14.8258983,10.92435 35.00325,25.3753 35.49042,25.41812 0.34552,0.0304 0.0775,-2.87529 -0.59557,-6.45702 z m -2.90764,-19.61276 c -0.34375,-1.71875 -0.625,-4.32616 -0.625,-5.79425 0,-2.26647 -1.57832,-3.74816 -10.4599117,-9.81952 l -10.45991,-7.15027 -3.03049,3.82631 -3.03049,3.8263 13.2404,9.11691 c 7.2822217,5.0143 13.6341517,9.11749 14.1154017,9.11821 0.48125,7.2e-4 0.59375,-1.40494 0.25,-3.12369 z m -3.56891,-24.5294 c -0.79812,-4.31745 -1.76299,-6.34902 -3.81233,-8.02705 -1.5090705,-1.23564 -3.0412617,-2.26281 -3.4048717,-2.28259 -1.00772,-0.0548 -5.96227,6.10626 -5.63026,7.00133 0.56432,1.52136 13.2953417,10.86221 13.6037017,9.98115 0.17178,-0.49083 -0.16853,-3.49361 -0.75624,-6.67284 z m -25.056091,-10.42479 c 0,-0.81413 -13.893469,-6.36523 -14.466749,-5.78014 -0.19364,0.19763 1.49934,3.46223 3.76218,7.25466 l 4.11425,6.89533 3.29516,-3.81194 c 1.81234,-2.09657 3.295159,-4.14762 3.295159,-4.55791 z m 50.904471,-1.90716 c 1.16463,-0.0113 1.29947,-2.20888 0.78957,-12.86882 -2.94355,-61.5382 -29.19885,-119.18435 -81.08469,-178.02953 -10.28051,-11.65941 -28.35218,-29.70581 -29.0493,-29.00868 -0.98864,0.98864 3.42334,16.82934 8.49542,30.50182 10.0263,27.02724 39.02095,89.52621 66.7544783,143.89156 10.4317917,20.44919 12.0033217,23.00227 14.1700617,23.02042 2.09557,0.0176 3.28347,1.66691 8.4785,11.77203 5.13251,9.9835 6.3424,11.67511 8.04149,11.24323 1.1,-0.2796 2.63201,-0.51452 3.40447,-0.52203 z M 0.13182351,586.5078 c 1.57529979,-1.64426 2.67198979,-3.13004 2.43708979,-3.30172 -1.95092988,-1.42587 -42.9270983,-19.73092 -42.9270983,-19.17657 0,0.23838 1.55288,3.25367 3.45085,6.70064 l 3.45085,6.26722 14.29915,6.15128 c 7.864529,3.3832 14.7774583,6.1957 15.3620583,6.25 0.5846,0.0543 2.3517904,-1.24659 3.92710021,-2.89085 z M 64.730595,576.56859 c 10.73462,-10.73462 14.51526,-22.14113 13.61288,-41.07122 -0.96133,-20.16675 -6.40836,-36.06971 -26.71631,-78 -20.8332,-43.01478 -35.16494,-76.762 -48.9685117,-115.3071 -2.9164497,-8.14391 -5.6709,-14.43884 -6.121,-13.98874 -2.76639,2.76639 -15.6061283,43.09653 -19.4142583,60.981 -1.98552,9.32477 -2.85352,7.04678 7.59609,19.93534 26.51384,32.70221 45.2822,68.53339 57.29297,109.3795 4.90818,16.69173 9.5562,36.08575 12.10295,50.5 2.26743,12.83336 2.44646,13.5 3.62546,13.5 0.58352,0 3.7289,-2.66795 6.98973,-5.92878 z M 3.5770333,566.36365 -0.58851631,557.99737 -9.2233467,554.61502 c -4.7491583,-1.86029 -16.9211283,-7.14779 -27.0488083,-11.75 -10.12768,-4.60221 -18.79584,-8.36765 -19.26257,-8.36765 -0.46673,0 0.75964,3.19355 2.72528,7.09678 l 3.57388,7.09678 13.18869,6.31973 c 20.20271,9.68069 43.1540283,20.20993 43.4890683,19.95122 0.16521,-0.12757 -1.57411,-3.99677 -3.86516,-8.59823 z m -13.6630603,-25.84138 -2.723718,-6.31254 -11.52422,-5.42911 c -18.96547,-8.93471 -43.15011,-19.49069 -43.60731,-19.03349 -0.23513,0.23513 1.26238,3.51803 3.32779,7.29535 l 3.7553,6.86784 20,8.56572 c 11,4.71115 22.925,9.95348 26.5,11.64962 3.574999,1.69614 6.6115783,2.99958 6.7479383,2.89652 0.13637,-0.10305 -0.97773,-3.02801 -2.4757803,-6.49991 z M -20.524855,520.7194 c -0.18333,-0.42788 -1.1896,-3.07192 -2.23615,-5.87563 l -1.90282,-5.09765 -13.59718,-5.76815 c -7.47845,-3.17248 -19.33468,-8.63167 -26.34718,-12.13153 -7.0125,-3.49986 -12.75,-6.04041 -12.75,-5.64567 0,0.39473 1.0125,3.36499 2.25,6.60056 l 2.25,5.88286 10.5,5.06534 c 10.97944,5.29663 39.8937,17.69954 41.33333,17.73013 0.45834,0.01 0.68334,-0.33238 0.5,-0.76026 z m -62.54242,332.77802 c 0,-45.43949 0.25664,-59.77036 0.94017,-52.50005 1.20739,12.84215 1.19517,91.88875 -0.0162,105.00005 -0.66206,7.1656 -0.92394,-7.7147 -0.92394,-52.5 z"
       style="fill:#d0d7e8;fill-opacity:0.627451" />
    <path
       inkscape:connector-curvature="0"
       id="path3339"
       d="m 1503.5901,457.99452 c -54.1503,-48.53325 -99.5637,-110.77226 -121.3505,-166.31083 -4.4245,-11.27894 -10.8974,-32.40094 -10.1564,-33.14195 0.299,-0.29899 2.2229,1.06224 4.2753,3.02494 2.0524,1.96271 5.6441,4.75159 7.9816,6.19752 4.0989,2.53551 4.25,2.55602 4.25,0.57663 0,-5.01132 -6.4288,-14.19237 -28.8999,-41.27217 l -15.6001,-18.7995 -5.186,0.61347 c -4.4875,0.53083 -5.4834,0.31613 -7.3933,-1.59383 -3.8074,-3.80742 -34.377,-69.08891 -45.5802,-97.33699 -9.0788,-22.891276 -8.4214,-27.873516 5.3341,-40.424176 l 7.4953,-6.838864 -8.4589,-7.91033 c -10.4706,-9.79155 -14.8535,-15.89531 -19.2585,-26.81945 -3.0732,-7.6214 -14.1388,-49.28385 -13.2938,-50.05176 0.1877,-0.1706 6.1498,0.54234 13.2491,1.5843 7.0992,1.04196 13.0683,1.73389 13.2646,1.53761 0.1962,-0.19629 -0.73,-2.33781 -2.0584,-4.75895 -3.3278,-6.06516 -11.8767,-25.68396 -15.5355,-35.65207 l -3.0282,-8.25 7.742,0 7.742,0 2.907,8.25 c 7.0536,20.01872 19.05,38.8638 29.1739,45.82923 4.4081,3.03288 14.2282,7.41073 14.9667,6.67225 0.1839,-0.18393 -3.6167,-8.19075 -8.4458,-17.79294 -7.3592,-14.63322 -17.1361,-38.60922 -17.1361,-42.02326 0,-0.5144 2.6827,-0.93528 5.9615,-0.93528 l 5.9614,0 1.0754,4.25 c 4.0804,16.1258 15.2387,42.4003 23.4739,55.27401 4.7282,7.39137 14.5668,19.77035 15.2055,19.13165 0.2653,-0.26529 1.3493,-4.45885 2.4089,-9.31901 2.5446,-11.67193 5.3052,-19.97271 10.1459,-30.50778 l 3.9843,-8.67113 -2.5709,-7.82887 c -1.4139,-4.30588 -3.459,-11.09137 -4.5446,-15.07887 l -1.9738,-7.25 5.4362,0 c 4.5105,0 5.4365,0.29804 5.4371,1.75 9e-4,1.89066 3.1655,10.74956 4.2148,11.79889 0.3525,0.35246 3.6526,-2.55185 7.3338,-6.45403 6.5483,-6.94158 6.8001,-7.09486 11.6573,-7.09486 l 4.9643,0 -8.2866,9.06668 c -6.5737,7.19251 -7.9866,9.25645 -6.8355,9.98469 0.7981,0.5049 1.9092,0.9249 2.469,0.93332 0.5598,0.008 2.6735,1.14031 4.6969,2.51531 2.0235,1.375 3.8892,2.5 4.1459,2.5 0.2567,0 3.3472,-3.4875 6.8676,-7.75 6.1884,-7.49271 6.3871,-7.90769 5.9856,-12.5 l -0.4153,-4.75 5.4648,0 5.4648,0 0.6359,4.63957 c 0.3498,2.55177 0.6848,8.06427 0.7445,12.25 0.1007,7.06271 1.4125,20.98647 1.7444,18.51654 0.081,-0.60164 3.297,-5.95939 7.147,-11.90611 5.7454,-8.87427 7.0025,-11.54599 7.0137,-14.90611 0.026,-7.78688 0.612,-8.59389 6.2406,-8.59389 l 5.0211,0 -0.6261,5.32715 c -0.6142,5.22607 -0.4901,5.56286 6.5431,17.75 8.872,15.37332 12.6538,24.86806 13.5871,34.11206 0.711,7.04202 0.7668,7.15209 4.2156,8.31123 5.8966,1.98183 7.5387,6.10427 7.3201,18.37674 l -0.1849,10.37718 6.8972,14.946 c 7.4953,16.24175 19.3897,38.670444 27.1044,51.10905 2.6775,4.31697 4.8681,8.65271 4.8681,9.63498 0,3.00786 -3.6487,6.63385 -7.9819,7.9321 -4.8831,1.46302 -5.031,0.47506 2.6232,17.52803 5.1521,11.47843 5.3576,12.26941 5.3283,20.51711 -0.017,4.94754 -0.3723,7.94352 -0.8382,7.07841 -0.4444,-0.825 -5.2306,-9.9375 -10.636,-20.25 -5.4055,-10.3125 -10.3158,-18.74056 -10.9118,-18.72902 -1.326,0.0257 -16.0373,4.36712 -19.8336,5.85309 -1.5125,0.59204 -2.7414,1.65007 -2.7308,2.35118 0.011,0.70111 10.1355,20.83749 22.5,44.74751 l 22.4808,43.47277 0,31.38422 c 0,27.48621 -0.1863,31.3127 -1.5,30.80858 -1.2679,-0.48656 -1.5207,1.00518 -1.6343,9.64301 -0.1947,14.82115 0.1551,19.02373 1.7313,20.79736 0.9472,1.06581 1.3875,3.98992 1.3551,9 l -0.048,7.42126 -6.7021,-7.14243 c -3.6861,-3.92834 -14.1123,-15.11006 -23.1693,-24.84828 -9.057,-9.73821 -16.6231,-17.2384 -16.8135,-16.66708 -0.8352,2.50546 3.0658,19.7435 7.198,31.80728 9.1497,26.71237 25.9742,64.37617 34.9663,78.27655 l 4.6164,7.13632 0,11.21562 0,11.21563 -3.5742,-4.99681 c -6.766,-9.45901 -14.1402,-22.04644 -24.896,-42.4968 -8.0853,-15.37271 -12.0636,-21.83063 -15.9059,-25.82013 -7.2001,-7.47591 -23.2341,-20.62987 -33.4661,-27.45483 -8.5512,-5.70386 -35.6086,-19.72504 -38.0644,-19.72504 -0.7301,0 2.1438,6.54442 6.7807,15.44076 24.962,47.89271 59.5474,94.64135 95.974,129.72697 l 13.1519,12.66774 0,9.08226 c 0,4.99525 -0.3375,9.0673 -0.75,9.04901 -0.4125,-0.0183 -5.925,-4.67144 -12.25,-10.34034 z m -42.643,-163.22649 c -4.3923,-14.1151 -5.1243,-15.71103 -8.03,-17.50687 -11.3417,-7.00956 -44.3776,-50.91276 -71.2182,-94.6457 l -6.2924,-10.2527 -2.6582,1.90949 c -1.462,1.05022 -6.6327,5.98135 -11.4905,10.95808 l -8.8324,9.04859 8.6621,11.29463 c 25.3675,33.07706 49.7295,60.63528 69.5513,78.67625 14.9635,13.61926 34.2549,28.7075 34.7615,27.18777 0.2088,-0.62625 -1.7952,-8.12755 -4.4532,-16.66954 z m 43.643,-11.87959 0,-12.47967 -4,-2.04065 -4,-2.04063 0,10.72814 0,10.72816 3.703,3.79217 c 2.0366,2.08569 3.8366,3.79216 4,3.79216 0.1634,0 0.297,-5.61585 0.297,-12.47968 z m -16,-12.38509 0,-6.86473 -8.75,-2.51599 c -5.0937,-1.46467 -9.1456,-2.14935 -9.6967,-1.63854 -0.8776,0.81342 15.8957,17.71792 17.6967,17.8352 0.4125,0.0269 0.75,-3.04032 0.75,-6.81594 z m -32,-19.74218 c 0,-17.77965 -0.6967,-16.97791 9.0199,-10.37949 3.2891,2.23355 5.9801,3.87419 5.9801,3.64587 0,-2.82054 -49.0422,-100.65939 -50.456,-100.65939 -3.7631,0 -37.452,20.99887 -37.5191,23.38629 -0.084,2.9754 27.3422,45.92432 40.3024,63.11372 10.3989,13.79243 30.1798,36.49997 31.7956,36.49997 0.4824,0 0.8771,-7.02311 0.8771,-15.60696 z m 53.3697,6.35699 c 0.3317,-1.2375 0.6092,-8.775 0.6168,-16.74999 0.013,-13.6017 -0.1549,-14.8872 -2.7089,-20.75 -1.4974,-3.4375 -3.0081,-6.25 -3.3571,-6.25 -0.6043,0 -1.0445,5.32135 -2.5379,30.6808 l -0.6585,11.1808 3.388,2.06546 c 4.2422,2.58628 4.5196,2.57694 5.2576,-0.17707 z m -15.8807,-25.24999 c 0.3835,-9.35 1.0366,-21.92534 1.4514,-27.94521 l 0.7541,-10.94521 -3.7529,-7.98408 -3.7529,-7.98408 -0.5924,5.42929 c -0.3258,2.9861 -1.3098,16.80735 -2.1867,30.71387 -1.5011,23.8071 -1.4937,25.44325 0.1275,28 1.8298,2.88571 6.6689,8.35689 7.0359,7.95498 0.1204,-0.13176 0.5326,-7.88956 0.916,-17.23956 z m -16.4608,-42.58103 c 1.125,-31.13975 1.1118,-31.64277 -0.945,-36 -1.1472,-2.43044 -3.1941,-5.76898 -4.5486,-7.41898 l -2.4626,-3 -0.03,9 c -0.016,4.95 -0.5389,20.25 -1.1609,34 l -1.1307,25.00001 4.3748,6.98288 c 3.0499,4.86804 4.4335,6.38235 4.5685,5 0.1065,-1.09059 0.7071,-16.19434 1.3346,-33.56391 z m -98.7788,-29.82362 c 29.341,-21.64695 60.966,-35.93997 115.2506,-52.08785 7.7,-2.29049 14.2986,-4.4667 14.6635,-4.83602 0.3649,-0.36932 -0.5351,-3.22154 -2,-6.33827 l -2.6635,-5.66679 -28,9.26212 c -36.9931,12.23697 -54.4676,19.01385 -75,29.08623 -25.1345,12.33003 -46.5607,26.97824 -66.8244,45.6851 l -6.8244,6.30012 3.6948,8 c 2.0321,4.4 4.0888,8.49386 4.5703,9.09746 0.5797,0.72678 6.3653,-4.37528 17.1296,-15.10595 8.9398,-8.91186 20.6413,-19.44013 26.0035,-23.39615 z m 81.0584,0.20625 c 0.3459,-17.43411 0.4482,-31.87896 0.2275,-32.09966 -0.2207,-0.2207 -1.9376,0.10575 -3.8153,0.72546 l -3.4141,1.12674 -0.6489,12.72292 c -0.3569,6.99761 -0.6507,18.28494 -0.6529,25.08295 0,11.94145 0.1022,12.55949 3.1353,18.25 1.7266,3.23949 3.4544,5.88998 3.8395,5.88998 0.3851,0 0.9831,-14.26427 1.3289,-31.69839 z m -139.3078,-30.75072 0,-39.449106 -3.5272,-2.69034 c -1.94,-1.47968 -3.7444,-2.47315 -4.0098,-2.2077 -0.2655,0.26545 -0.775,15.797596 -1.1323,34.515886 l -0.6497,34.03326 4.4095,7.61129 c 2.4253,4.18621 4.522,7.61681 4.6595,7.62356 0.1375,0.007 0.25,-17.73984 0.25,-39.43685 z m 21.5,29.28242 c 11.7569,-10.84021 24.9456,-22.05489 30.25,-25.72242 1.7875,-1.2359 3.25,-2.6249 3.25,-3.08669 0,-0.90389 -46.1815,-32.17598 -46.7205,-31.63703 -0.5883,0.58833 1.0298,70.61309 1.6315,70.60065 0.324,-0.007 5.539,-4.57623 11.589,-10.15451 z m -3.796,-17.42942 c -7.7376,-4.19532 -5.6367,-17.84572 3.1518,-20.47881 10.9433,-3.2787 19.5641,5.56087 14.6642,15.03628 -3.4122,6.59845 -11.2616,8.99634 -17.816,5.44253 z m 11.8415,-5.85844 c 4.5837,-4.58374 1.8573,-10.94656 -4.6118,-10.76263 -5.3867,0.15316 -8.6071,4.31568 -6.8712,8.88135 0.5844,1.53732 1.597,3.13489 2.2501,3.55017 2.4329,1.54699 6.8078,0.75622 9.2329,-1.66889 z m 93.0831,-1.25023 c -0.3447,-0.34466 -10.2587,4.17881 -11.4398,5.21965 -0.1712,0.15084 2.3038,5.38421 5.5,11.62969 l 5.8112,11.35544 0.2792,-13.88755 c 0.1535,-7.63815 0.086,-14.08091 -0.1506,-14.31723 z M 1307.0318,89.744744 c 0.8643,-3.4438 -0.7116,-2.92705 -4.7687,1.563676 -5.2329,5.79217 -6.673,9.21345 -6.673,15.85353 0,6.11078 1.9107,12.80234 6.7035,23.47736 l 2.7965,6.22885 0.6726,-22.37342 c 0.3699,-12.30538 0.941,-23.44288 1.2691,-24.749996 z m 81.5961,32.720966 c 1.9042,-1.59635 3.2372,-3.09029 2.9622,-3.31987 -0.275,-0.22958 -10.4,-7.30922 -22.5,-15.73252 -12.1,-8.4233 -26.4509,-18.647146 -31.891,-22.719666 l -9.8911,-7.40456 -3.8589,2.55372 c -2.1224,1.40455 -3.859,2.9242 -3.859,3.377 0,1.03588 63.4179,45.998306 65.0378,46.110956 0.2958,0.0206 2.0958,-1.26871 4,-2.86506 z m 21.2073,-14.68496 c 5.3609,-21.235786 16.7549,-70.4555 16.7549,-72.37772 0,-1.63985 -0.4283,-2.0845 -1.5818,-1.6419 -0.8699,0.33385 -2.8183,0.60699 -4.3297,0.60699 -2.6336,0 -2.8206,0.34295 -4.4987,8.25 -0.963,4.5375 -4.8415,21.75 -8.6189,38.250044 -3.7775,16.499996 -7.1669,31.690556 -7.5321,33.756796 l -0.6639,3.7568 4.3626,-1.84421 c 4.2119,-1.78053 4.4228,-2.0829 6.1076,-8.7568 z m -15.5942,-2.30587 1.1614,-5.23013 -4.1561,-3.02434 c -5.2018,-3.78523 -26.7093,-17.190236 -40.909,-25.497426 l -10.7528,-6.290734 -3.7472,2.542934 c -2.0609,1.39859 -3.5222,2.84313 -3.2472,3.21008 0.275,0.36695 12.2,8.49949 26.5,18.0723 14.3,9.572816 27.35,18.458536 29,19.746036 1.65,1.28751 3.4477,2.19703 3.9948,2.02117 0.5471,-0.17587 1.5173,-2.67332 2.1561,-5.54989 z m 31.0402,2.34913 c 3.5148,-1.43689 3.3884,-1.11526 7.8425,-19.955846 3.0165,-12.75977 12.4664,-56.308174 12.4664,-57.449544 0,-1.46206 -8.9643,1.26028 -9.4326,2.86454 -0.2545,0.87173 -4.3582,18.23496 -9.1195,38.585004 -4.7613,20.349996 -8.8913,37.385706 -9.1776,37.857126 -0.561,0.92339 2.3119,0.18734 7.4208,-1.90128 z m 23.5589,-7.673 c 4.8125,-1.23867 8.75,-2.54775 8.75,-2.90908 0,-0.36132 -1.1389,-0.94281 -2.531,-1.2922 -3.3775,-0.8477 -6.4615,-6.136786 -6.4615,-11.081566 0,-11.09273 13.0121,-18.561653 20.8491,-11.96727 5.0373,4.23865 5.9842,10.69704 2.7186,18.543906 -0.5296,1.27266 0.9423,1.03576 7.6344,-1.22871 4.5597,-1.542926 9.0779,-2.814916 10.0404,-2.826626 2.571,-0.0313 2.1924,-1.23086 -2.2637,-7.17089 -4.7823,-6.37493 -34.8098,-38.850454 -35.9218,-38.850454 -0.4264,0 -1.5738,3.7125 -2.55,8.25 -0.9761,4.5375 -4.4162,18.284364 -7.6446,30.548544 -3.2284,12.264166 -5.8699,22.554146 -5.8699,22.866626 0,0.31247 1.0125,0.29852 2.25,-0.031 1.2375,-0.32953 6.1875,-1.6126 11,-2.85126 z m -151.25,-13.400076 c 22.8316,-20.249178 59.6209,-39.476954 101.1616,-52.871674 15.6031,-5.03118 47.1558,-13.32949 61.0884,-16.06615 l 8.75,-1.71868 0,-3.86316 c 0,-2.12473 -0.4101,-3.86315 -0.9113,-3.86315 -1.3388,0 -20.5257,4.50066 -36.5887,8.58261 -47.01,11.94626 -81.7264,25.1589 -113.6628,43.25868 -20.9041,11.847334 -29.8167,19.806224 -31.4772,28.109064 -0.5574,2.786916 0.834,6.115536 2.5125,6.010366 0.3451,-0.0216 4.4525,-3.43169 9.1275,-7.577906 z m 169.077,2.69415 c 1.7621,-1.76217 2.923,-3.97705 2.923,-5.57692 0,-3.33146 -4.9864,-8.5 -8.2005,-8.5 -5.9677,0 -9.4396,6.92769 -6.409,12.78817 2.6453,5.115476 7.3418,5.633396 11.6865,1.28875 z m -69.4514,-0.82692 c 0.365,-1.5125 3.28,-12.09711 6.4777,-23.521404 3.1978,-11.42424 6.1064,-22.32938 6.4637,-24.23364 l 0.6495,-3.46229 -18.8582,6.37727 c -16.5233,5.58767 -36.8933,13.74753 -41.3499,16.56404 -1.9506,1.23278 -2.6124,0.73425 18.9916,14.307994 10.175,6.3929 20.075,12.74767 22,14.12171 4.4564,3.180876 4.8233,3.170856 5.6256,-0.15368 z m -17.0593,-13.83171 c -5.2402,-1.91933 -7.4024,-4.02811 -8.1352,-7.9341 -1.2234,-6.521504 5.6928,-14.484234 12.5806,-14.484234 5.5639,0 8.7112,1.49718 10.9841,5.22507 4.8512,7.95657 -0.5632,18.969024 -9.1961,18.704514 -1.2648,-0.0388 -4.0698,-0.71882 -6.2334,-1.51125 z m 9.0225,-5.741 c 2.3474,-2.01912 2.6105,-2.801796 2.0128,-5.987894 -1.1378,-6.06494 -7.7773,-7.82406 -11.529,-3.05458 -5.753,7.313824 2.4567,15.114814 9.5162,9.042474 z m 95.2864,-11.927334 c -11.3971,-22.75201 -16.7428,-31.75 -18.8626,-31.75 -3.3074,0 -12.0126,2.31779 -12.0126,3.19841 0,0.4702 7.3125,9.20295 16.25,19.4061 8.9375,10.20314 17.1254,19.641194 18.1953,20.973374 4.3187,5.37757 3.2123,1.71189 -3.5701,-11.827884 z m -156.8652,-12.255 c 10.4445,-5.22776 18.99,-9.90116 18.99,-10.38535 0,-1.73675 -13.5559,-13.51642 -21.4497,-18.63918 -9.4455,-6.12967 -15.5457,-9.28603 -26.2409,-13.57748 -11.3915,-4.57085 -27.5781,-9.95755 -28.1633,-9.37239 -0.843,0.843 2.8753,15.44166 6.2349,24.4794 7.3908,19.88235 21.0149,36.73321 29.879,36.9558 0.968,0.0243 10.3055,-4.23305 20.75,-9.4608 z m 45.0807,-21.08332 c 11.1195,-4.29437 38.985,-12.41168 42.6073,-12.41168 2.4711,0 2.5495,-0.17777 1.9637,-4.45173 -0.8735,-6.37325 -4.0855,-14.97527 -7.6878,-20.58893 -3.399,-5.29694 -14.1012,-15.78308 -20.7728,-20.35357 -4.1159,-2.81963 -4.2769,-2.8471 -6.2452,-1.0658 -5.5004,4.97773 -10.8848,19.51446 -16.4371,44.37579 -3.4671,15.52488 -3.9085,18.08424 -3.1191,18.08424 0.2198,0 4.5807,-1.61474 9.691,-3.58832 z m 75.9093,-21.57626 c 5.775,-1.69157 10.8794,-3.42343 11.3431,-3.84859 2.3904,-2.19172 -4.2382,-21.82968 -10.7315,-31.79322 l -4.1099,-6.3064 -2.2516,2.8064 c -4.9404,6.1576 -10.7755,24.3503 -12.5639,39.17145 l -0.5267,4.36506 4.1703,-0.65956 c 2.2936,-0.36276 8.8952,-2.04357 14.6702,-3.73514 z m -38.5977,-40.58542 c -0.3593,-3.7125 -0.975,-7.10567 -1.3682,-7.54039 -0.3932,-0.43471 -1.9724,1.10985 -3.5093,3.43236 l -2.7945,4.22274 3.6202,3.31764 c 1.9911,1.82471 3.8643,3.31765 4.1627,3.31765 0.2984,0 0.2485,-3.0375 -0.1109,-6.75 z m 99.3569,51.21702 c -8.8945,-27.66571 -13.5239,-44.68412 -21.2865,-78.25231 -0.5271,-2.27942 -0.5022,-2.28456 9.6889,-2 l 10.2175,0.28529 4.2897,17 4.2897,17 -0.2292,33.46702 -0.2293,33.46701 -6.7408,-20.96701 z"
       style="fill:#d0d7e8;fill-opacity:0.627451" />
  </g>
</svg>
